HIERARCHY
ROOT Hips
{
	OFFSET 0.000000 0.000000 0.000000
	CHANNELS 6 Xposition Yposition Zposition Zrotation Yrotation Xrotation 
	JOINT LHipJoint
	{
		OFFSET 0.000000 0.000000 0.000000
		CHANNELS 3 Zrotation Yrotation Xrotation
		JOINT LeftUpLeg
		{
			OFFSET 1.363060 -1.794630 0.839290
			CHANNELS 3 Zrotation Yrotation Xrotation
			JOINT LeftLeg
			{
				OFFSET 2.448110 -6.726130 0.000000
				CHANNELS 3 Zrotation Yrotation Xrotation
				JOINT LeftFoot
				{
					OFFSET 2.562200 -7.039590 0.000000
					CHANNELS 3 Zrotation Yrotation Xrotation
					JOINT LeftToeBase
					{
						OFFSET 0.157640 -0.433110 2.322550
						CHANNELS 3 Zrotation Yrotation Xrotation
						End Site
						{
							OFFSET 0.000000 0.000000 0.000000
						}
					}
				}
			}
		}
	}
	JOINT RHipJoint
	{
		OFFSET 0.000000 0.000000 0.000000
		CHANNELS 3 Zrotation Yrotation Xrotation
		JOINT RightUpLeg
		{
			OFFSET -1.305520 -1.794630 0.839290
			CHANNELS 3 Zrotation Yrotation Xrotation
			JOINT RightLeg
			{
				OFFSET -2.542530 -6.985550 0.000000
				CHANNELS 3 Zrotation Yrotation Xrotation
				JOINT RightFoot
				{
					OFFSET -2.568260 -7.056230 0.000000
					CHANNELS 3 Zrotation Yrotation Xrotation
					JOINT RightToeBase
					{
						OFFSET -0.164730 -0.452590 2.363150
						CHANNELS 3 Zrotation Yrotation Xrotation
						End Site
						{
							OFFSET 0.000000 0.000000 0.000000
						}
					}
				}
			}
		}
	}
	JOINT LowerBack
	{
		OFFSET 0.000000 0.000000 0.000000
		CHANNELS 3 Zrotation Yrotation Xrotation
		JOINT Spine
		{
			OFFSET 0.028270 2.035590 -0.193380
			CHANNELS 3 Zrotation Yrotation Xrotation
			JOINT Spine1
			{
				OFFSET 0.056720 2.048850 -0.042750
				CHANNELS 3 Zrotation Yrotation Xrotation
				JOINT Neck
				{
					OFFSET 0.000000 0.000000 0.000000
					CHANNELS 3 Zrotation Yrotation Xrotation
					JOINT Neck1
					{
						OFFSET -0.054170 1.746240 0.172020
						CHANNELS 3 Zrotation Yrotation Xrotation
						JOINT Head
						{
							OFFSET 0.104070 1.761360 -0.123970
							CHANNELS 3 Zrotation Yrotation Xrotation
							End Site
							{
								OFFSET 0.000000 0.000000 0.000000
							}
						}
					}
				}
				JOINT LeftShoulder
				{
					OFFSET 0.000000 0.000000 0.000000
					CHANNELS 3 Zrotation Yrotation Xrotation
					JOINT LeftArm
					{
						OFFSET 3.362410 1.200890 -0.311210
						CHANNELS 3 Zrotation Yrotation Xrotation
						JOINT LeftForeArm
						{
							OFFSET 4.983000 -0.000000 -0.000000
							CHANNELS 3 Zrotation Yrotation Xrotation
							JOINT LeftHand
							{
								OFFSET 3.483560 -0.000000 -0.000000
								CHANNELS 3 Zrotation Yrotation Xrotation
								JOINT LeftFingerBase
								{
									OFFSET 0.000000 0.000000 0.000000
									CHANNELS 3 Zrotation Yrotation Xrotation
									JOINT LeftHandIndex1
									{
										OFFSET 0.715260 -0.000000 -0.000000
										CHANNELS 3 Zrotation Yrotation Xrotation
										End Site
										{
											OFFSET 0.000000 0.000000 0.000000
										}
									}
								}
								JOINT LThumb
								{
									OFFSET 0.000000 0.000000 0.000000
									CHANNELS 3 Zrotation Yrotation Xrotation
									End Site
									{
										OFFSET 0.000000 0.000000 0.000000
									}
								}
							}
						}
					}
				}
				JOINT RightShoulder
				{
					OFFSET 0.000000 0.000000 0.000000
					CHANNELS 3 Zrotation Yrotation Xrotation
					JOINT RightArm
					{
						OFFSET -3.136600 1.374050 -0.404650
						CHANNELS 3 Zrotation Yrotation Xrotation
						JOINT RightForeArm
						{
							OFFSET -5.241900 -0.000000 -0.000000
							CHANNELS 3 Zrotation Yrotation Xrotation
							JOINT RightHand
							{
								OFFSET -3.444170 -0.000000 -0.000000
								CHANNELS 3 Zrotation Yrotation Xrotation
								JOINT RightFingerBase
								{
									OFFSET 0.000000 0.000000 0.000000
									CHANNELS 3 Zrotation Yrotation Xrotation
									JOINT RightHandIndex1
									{
										OFFSET -0.622530 -0.000000 -0.000000
										CHANNELS 3 Zrotation Yrotation Xrotation
										End Site
										{
											OFFSET 0.000000 0.000000 0.000000
										}
									}
								}
								JOINT RThumb
								{
									OFFSET 0.000000 0.000000 0.000000
									CHANNELS 3 Zrotation Yrotation Xrotation
									End Site
									{
										OFFSET 0.000000 0.000000 0.000000
									}
								}
							}
						}
					}
				}
			}
		}
	}
}
MOTION
Frames: 8
Frame Time: 0.008333
4.593148 16.782526 -7.478968 -173.154523 37.441197 -167.064820 -12.973078 5.212534 -0.320272 -11.077311 13.259465 -4.854233 -0.507763 2.832292 40.070730 0.505888 -11.703302 22.112301 -5.738800 -0.000000 -34.661400 7.128215 -0.933869 5.100780 10.978200 13.045515 -31.859748 3.490512 -0.546543 15.957718 1.212645 6.895736 4.378726 0.921600 -0.000000 -48.446400 6.631232 -6.032358 -5.356937 1.195118 -6.807074 -3.998108 -6.303476 -6.953890 -0.568143 9.867043 -16.208381 -7.245366 -3.401391 -0.272661 0.223744 0.000000 0.000000 0.000000 -2.865223 -0.614167 -0.579180 -77.225490 -6.535911 21.318794 -1.094094 -69.703785 -0.089320 15.149467 -2.604915 -0.401602 -0.195072 0.394774 0.000000 0.000000 0.000000 0.000000 0.000000 0.000000 0.000000 14.044434 -15.432841 0.009089 59.141797 -0.018374 -10.385686 0.990068 61.998000 -0.018439 -11.688984 9.707261 -1.033652 0.161520 -0.237094 -0.000000 0.000000 0.000000 0.000000 0.000000 0.000000 0.000000 
4.684224 16.780655 -7.630451 -172.642683 36.875584 -167.030750 -13.195622 5.151923 -0.593414 -9.914500 15.015681 -6.546947 -0.301038 2.945319 43.273637 0.753710 -9.663166 23.476400 -5.140800 -0.000000 -34.687900 7.110368 -1.071883 4.943380 11.870182 12.194680 -31.582353 3.495670 -0.683415 17.179342 1.206069 6.940168 4.174843 0.915900 -0.000000 -45.573400 7.041430 -5.837017 -5.165233 1.240569 -6.639052 -3.970322 -6.361083 -6.778289 -0.577446 9.918793 -15.975894 -7.256573 -3.414589 -0.273287 0.217915 0.000000 0.000000 0.000000 -3.157346 -0.191478 -0.514870 -77.358391 -6.029336 21.249216 -1.102065 -68.754379 -0.087005 15.194757 -2.571490 -0.396706 -0.192778 0.383166 0.000000 0.000000 0.000000 0.000000 0.000000 0.000000 0.000000 14.164470 -15.063136 -0.038131 59.433512 0.445639 -9.769709 0.994772 61.956646 -0.018655 -11.570885 9.728215 -1.025548 0.160197 -0.239794 -0.000000 0.000000 0.000000 0.000000 0.000000 0.000000 0.000000 
4.772530 16.779433 -7.777636 -172.164285 36.286135 -166.989844 -13.376586 5.046403 -0.846203 -8.886930 16.493770 -8.307567 -0.111487 3.067437 46.504018 1.001477 -6.913140 24.172414 -4.022300 0.000000 -34.435700 7.083923 -1.199837 4.773430 12.749386 11.297829 -31.321774 3.512347 -0.802471 18.362709 1.201725 7.038913 3.742195 0.900900 0.000000 -42.649400 7.409910 -5.628958 -4.972239 1.273474 -6.454366 -3.938474 -6.427015 -6.585088 -0.575279 9.989506 -15.731925 -7.283065 -3.431430 -0.274002 0.207521 0.000000 0.000000 0.000000 -3.419694 0.290142 -0.451538 -77.459155 -5.523394 21.109552 -1.109846 -67.792484 -0.084805 15.303317 -2.562611 -0.396805 -0.191090 0.371031 0.000000 0.000000 0.000000 0.000000 0.000000 0.000000 0.000000 14.324008 -14.669254 -0.085635 59.794642 0.945093 -9.163578 1.002712 61.862405 -0.018764 -11.412718 9.742156 -1.013142 0.158452 -0.242387 -0.000000 0.000000 0.000000 0.000000 0.000000 0.000000 0.000000 
4.858377 16.779264 -7.920605 -171.724604 35.666363 -166.929549 -13.519275 4.900910 -1.071167 -8.008433 17.664019 -10.153514 0.065760 3.204833 49.738062 1.245298 -3.639275 24.103964 -2.518500 0.000000 -33.803600 7.045506 -1.317991 4.608401 13.583025 10.433022 -31.067162 3.537425 -0.900303 19.458458 1.192863 7.134669 3.123912 0.867201 -0.000000 -39.824900 7.738953 -5.409027 -4.796852 1.295910 -6.255447 -3.906445 -6.497083 -6.377046 -0.561763 10.066392 -15.493322 -7.322803 -3.450005 -0.274719 0.193322 0.000000 0.000000 0.000000 -3.661624 0.803324 -0.391777 -77.517331 -4.986661 20.864344 -1.116645 -66.852246 -0.082686 15.474497 -2.588861 -0.403196 -0.189756 0.358493 0.000000 0.000000 0.000000 0.000000 0.000000 0.000000 0.000000 14.500345 -14.271882 -0.131663 60.231416 1.498225 -8.564523 1.014587 61.703369 -0.018753 -11.214810 9.758047 -0.997435 0.156359 -0.245014 0.000000 0.000000 0.000000 0.000000 0.000000 0.000000 0.000000 
4.942382 16.780549 -8.059237 -171.346143 35.005490 -166.853572 -13.622082 4.723852 -1.258336 -7.309468 18.494469 -12.089404 0.236328 3.359252 52.933852 1.481605 -0.089979 23.251499 -0.844200 -0.000000 -32.760400 7.001854 -1.424661 4.457049 14.331302 9.636722 -30.817936 3.565078 -0.976855 20.446535 1.175071 7.194663 2.360594 0.812600 -0.000000 -37.263300 8.010487 -5.181550 -4.651356 1.304952 -6.046207 -3.876118 -6.571657 -6.158341 -0.534646 10.150242 -15.244239 -7.374621 -3.471404 -0.275549 0.175691 0.000000 0.000000 0.000000 -3.880579 1.374070 -0.333228 -77.524640 -4.447909 20.541604 -1.124365 -65.924139 -0.080612 15.714088 -2.653810 -0.416780 -0.189080 0.345585 0.000000 0.000000 0.000000 0.000000 0.000000 0.000000 0.000000 14.699491 -13.853151 -0.180389 60.730938 2.066863 -7.986192 1.027884 61.518891 -0.018669 -10.986535 9.767801 -0.978224 0.153941 -0.247666 0.000000 0.000000 0.000000 0.000000 0.000000 0.000000 0.000000 
5.024911 16.783689 -8.193929 -171.035855 34.292011 -166.755040 -13.689272 4.522537 -1.399513 -6.795320 18.972068 -14.124116 0.405171 3.527819 56.048941 1.706745 3.466533 21.660041 0.762400 0.000001 -31.256000 6.954817 -1.519745 4.330448 14.971942 8.952504 -30.570070 3.591583 -1.030951 21.296130 1.142456 7.169446 1.502614 0.735100 0.000000 -35.085400 8.222550 -4.948261 -4.550865 1.301415 -5.829456 -3.850744 -6.648322 -5.932137 -0.494380 10.233709 -14.987063 -7.435924 -3.494581 -0.276468 0.155496 0.000000 0.000000 0.000000 -4.081550 1.993498 -0.276169 -77.473878 -3.902609 20.136993 -1.133483 -65.019077 -0.078512 16.017416 -2.763982 -0.438751 -0.188940 0.332383 0.000000 0.000000 0.000000 0.000000 0.000000 0.000000 0.000000 14.907999 -13.416711 -0.232173 61.288465 2.639786 -7.432112 1.041675 61.322673 -0.018539 -10.735412 9.771745 -0.956411 0.151277 -0.250418 0.000000 0.000000 0.000000 0.000000 0.000000 0.000000 0.000000 
5.106210 16.788940 -8.325088 -170.799727 33.514557 -166.632243 -13.725069 4.303625 -1.487262 -6.463155 19.092212 -16.255025 0.574833 3.703357 59.034137 1.916851 6.794341 19.436401 2.098900 0.000000 -29.292700 6.907903 -1.603069 4.233731 15.491045 8.399300 -30.322016 3.613374 -1.062822 21.991463 1.090362 7.021828 0.593671 0.637000 0.000000 -33.371800 8.373008 -4.710631 -4.505291 1.285907 -5.607280 -3.832777 -6.724536 -5.700831 -0.442524 10.310266 -14.729338 -7.504087 -3.518195 -0.277430 0.133612 0.000000 0.000000 0.000000 -4.267356 2.643109 -0.221476 -77.359818 -3.341233 19.642994 -1.143995 -64.149383 -0.076293 16.374130 -2.922941 -0.469814 -0.189089 0.318929 0.000000 0.000000 0.000000 0.000000 0.000000 0.000000 0.000000 15.112169 -12.972131 -0.286401 61.897447 3.209540 -6.901528 1.055254 61.125902 -0.018389 -10.473006 9.771326 -0.933195 0.148499 -0.253329 -0.000000 0.000000 0.000000 0.000000 0.000000 0.000000 0.000000 
5.186393 16.796485 -8.453315 -170.637249 32.664781 -166.483563 -13.734963 4.071632 -1.516807 -6.292508 18.863230 -18.469573 0.744511 3.876396 61.840270 2.107342 9.716296 16.723455 3.035200 -0.000000 -26.903500 6.862714 -1.675119 4.168731 15.888142 7.985216 -30.069056 3.627989 -1.072828 22.519377 1.014444 6.718329 -0.326049 0.522900 -0.000000 -32.152200 8.465950 -4.468886 -4.519834 1.259881 -5.380649 -3.823839 -6.798519 -5.465632 -0.380673 10.374910 -14.466828 -7.576112 -3.541300 -0.278406 0.110924 0.000000 0.000000 0.000000 -4.440543 3.321348 -0.168348 -77.181440 -2.774835 19.072757 -1.156704 -63.311652 -0.073868 16.773425 -3.130155 -0.510266 -0.189436 0.305252 0.000000 0.000000 0.000000 0.000000 0.000000 0.000000 0.000000 15.300726 -12.514703 -0.343623 62.545886 3.752661 -6.399697 1.067055 60.953234 -0.018267 -10.210425 9.763895 -0.909377 0.145693 -0.256452 -0.000000 0.000000 0.000000 0.000000 0.000000 0.000000 0.000000 
